<svg xmlns="http://www.w3.org/2000/svg" viewBox="0 0 60 75" x="0px" y="0px"><title>018 - Car Top View</title><path d="M12,40a2,2,0,0,0-2,2v6a2,2,0,0,0,2,2h2.051A11.01,11.01,0,0,0,25,60H35A11.01,11.01,0,0,0,45.949,50H48a2,2,0,0,0,2-2V42a2,2,0,0,0-2-2H46V20h2a2,2,0,0,0,2-2V12a2,2,0,0,0-2-2H46A10.011,10.011,0,0,0,36,0H24A10.011,10.011,0,0,0,14,10H12a2,2,0,0,0-2,2v6a2,2,0,0,0,2,2h2V40Zm2,8H12V42h2ZM46,12h2v6H46Zm0,30h2v6H46ZM38,2.263A8.022,8.022,0,0,1,42.918,6H41a3,3,0,0,1-3-3Zm-16,0V3a3,3,0,0,1-3,3H17.082A8.022,8.022,0,0,1,22,2.263ZM16,10a7.953,7.953,0,0,1,.263-2H19a5.006,5.006,0,0,0,5-5V2H36V3a5.006,5.006,0,0,0,5,5h2.737A7.953,7.953,0,0,1,44,10V49a9.01,9.01,0,0,1-9,9H25a9.01,9.01,0,0,1-9-9Zm-4,8V12h2v6Z"/><path d="M21.528,30.772A2.039,2.039,0,0,0,23.383,32H36.617a2.039,2.039,0,0,0,1.855-1.228l3.342-7.542a2.156,2.156,0,0,0-.031-1.821,2.032,2.032,0,0,0-1.321-1.093,42.4,42.4,0,0,0-20.924,0,2.032,2.032,0,0,0-1.321,1.093,2.156,2.156,0,0,0-.031,1.821Zm-1.5-8.518a40.256,40.256,0,0,1,19.931,0,.16.16,0,0,1,.023.167h0L36.617,30l-13.261-.038-3.342-7.543A.169.169,0,0,1,20.032,22.254Z"/><path d="M36,42H24a2,2,0,0,0-2,2v3.88a2.011,2.011,0,0,0,1.271,1.87,18.706,18.706,0,0,0,13.457,0A2.011,2.011,0,0,0,38,47.88V44A2,2,0,0,0,36,42ZM24,47.88V44l12,0,.01,3.885A16.646,16.646,0,0,1,24,47.88Z"/><path d="M20,41V33a1,1,0,0,0-2,0v8a1,1,0,0,0,2,0Z"/><path d="M41,32a1,1,0,0,0-1,1v8a1,1,0,0,0,2,0V33A1,1,0,0,0,41,32Z"/><path d="M24.8,16.98A.948.948,0,0,0,25,17a1,1,0,0,0,.979-.8l2-10A1,1,0,0,0,26.02,5.8l-2,10A1,1,0,0,0,24.8,16.98Z"/><path d="M35,17a.955.955,0,0,0,.2-.02A1,1,0,0,0,35.98,15.8l-2-10a1,1,0,1,0-1.96.392l2,10A1,1,0,0,0,35,17Z"/><text x="0" y="75" fill="#000000" font-size="5px" font-weight="bold" font-family="'Helvetica Neue', Helvetica, Arial-Unicode, Arial, Sans-serif">Created by Juicy Fish</text><text x="0" y="80" fill="#000000" font-size="5px" font-weight="bold" font-family="'Helvetica Neue', Helvetica, Arial-Unicode, Arial, Sans-serif">from the Noun Project</text></svg>